<?xml version="1.0" standalone="no"?>
<!DOCTYPE svg PUBLIC "-//W3C//DTD SVG 20010904//EN"
 "http://www.w3.org/TR/2001/REC-SVG-20010904/DTD/svg10.dtd">
<svg version="1.0" xmlns="http://www.w3.org/2000/svg"
 width="256.000000pt" height="256.000000pt" viewBox="0 0 256.000000 256.000000"
 preserveAspectRatio="xMidYMid meet">

<g transform="translate(0.000000,256.000000) scale(0.100000,-0.100000)"
fill="#000000" stroke="none">
<path d="M1640 2546 c-180 -38 -324 -124 -440 -263 -37 -45 -92 -127 -104
-158 -2 -6 -9 -5 -17 3 -21 20 -57 14 -75 -12 -15 -24 -14 -29 12 -88 33 -76
51 -98 77 -98 33 0 156 61 162 81 9 26 -11 58 -41 65 -30 8 -28 15 21 89 58
87 163 179 257 224 195 93 404 93 598 -1 120 -58 239 -177 299 -298 94 -192
93 -405 -1 -600 -59 -121 -178 -240 -298 -298 -260 -124 -543 -84 -755 108
-199 180 -376 249 -605 237 -109 -6 -176 -21 -272 -64 -60 -27 -76 -49 -59
-82 17 -32 44 -33 107 -5 178 79 399 70 576 -23 39 -20 110 -72 159 -115 111
-98 181 -143 281 -179 173 -63 372 -62 546 4 198 74 360 233 435 425 115 297
50 619 -168 837 -101 101 -206 161 -351 200 -81 23 -262 28 -344 11z"/>
<path d="M1657 2276 c-8 -8 -18 -39 -21 -68 -6 -49 -10 -55 -45 -74 l-39 -21
-46 20 c-70 30 -83 22 -149 -94 -67 -116 -67 -130 -7 -172 37 -27 40 -31 40
-78 0 -46 -2 -50 -40 -75 -61 -40 -60 -57 7 -173 66 -117 81 -126 149 -93 l43
21 40 -22 c39 -22 51 -45 51 -103 0 -46 22 -54 150 -54 138 0 144 3 154 82 6
49 10 55 47 75 l40 22 43 -21 c68 -33 83 -23 150 92 67 116 67 132 6 175 -37
26 -40 31 -40 75 0 44 3 49 40 75 62 43 61 60 -8 178 -67 115 -81 123 -150 88
l-40 -20 -41 22 c-37 20 -41 26 -47 75 -10 79 -16 82 -154 82 -90 0 -122 -3
-133 -14z m188 -123 c11 -64 14 -69 53 -87 20 -10 54 -29 75 -43 38 -26 54
-26 124 3 6 3 23 -14 37 -37 l25 -43 -37 -32 -37 -32 -1 -91 -1 -92 38 -32 38
-33 -25 -43 c-14 -23 -31 -40 -37 -37 -70 29 -86 29 -124 3 -21 -14 -55 -33
-75 -43 -39 -18 -42 -23 -53 -86 -6 -38 -6 -38 -55 -38 l-49 0 -6 43 c-9 56
-11 60 -65 87 -24 12 -57 32 -72 43 -25 19 -31 19 -70 7 -58 -19 -55 -20 -83
26 l-25 42 24 15 c51 34 55 42 55 137 0 95 -4 103 -55 137 l-24 15 25 42 c28
46 25 45 83 26 39 -12 45 -12 70 7 15 11 48 31 72 43 54 27 56 31 65 87 l6 43
49 0 c49 0 49 0 55 -37z"/>
<path d="M1725 1956 c-75 -28 -124 -114 -111 -195 13 -79 97 -151 177 -151 48
0 119 38 146 79 97 146 -47 327 -212 267z m117 -113 c23 -20 24 -80 1 -105
-20 -23 -80 -24 -105 -1 -23 20 -24 80 -1 105 20 23 80 24 105 1z"/>
<path d="M227 1312 c-22 -24 -21 -45 1 -65 23 -21 46 -22 66 -1 30 30 9 84
-33 84 -10 0 -25 -8 -34 -18z"/>
<path d="M636 1254 c-9 -8 -16 -26 -16 -38 0 -57 -12 -81 -50 -102 l-38 -21
-46 20 c-70 30 -83 22 -149 -94 -67 -116 -67 -130 -7 -172 37 -27 40 -31 40
-78 0 -46 -2 -50 -40 -75 -61 -41 -60 -57 7 -173 67 -116 81 -125 149 -93 l43
21 40 -22 c39 -21 51 -45 51 -102 0 -45 27 -55 153 -55 135 0 142 4 152 83 6
48 10 54 46 74 l40 22 45 -21 c69 -30 82 -22 148 92 67 116 67 132 6 175 -37
26 -40 31 -40 75 0 44 3 49 40 75 61 43 61 59 -7 177 -66 116 -81 125 -152 88
l-41 -20 -39 26 c-34 22 -40 32 -46 75 -10 75 -18 79 -155 79 -94 0 -122 -3
-134 -16z m189 -121 c11 -64 14 -69 53 -87 20 -10 54 -29 75 -43 38 -26 54
-26 124 3 6 3 23 -14 37 -37 l25 -43 -38 -33 -38 -32 1 -92 1 -91 37 -32 38
-31 -26 -43 c-19 -32 -30 -42 -42 -36 -70 29 -72 29 -100 12 -15 -10 -51 -30
-79 -45 -54 -28 -57 -31 -68 -95 -6 -38 -6 -38 -55 -38 l-48 0 -7 43 c-9 51
-21 77 -38 77 -6 0 -38 16 -70 36 -58 36 -60 36 -101 23 -56 -18 -53 -19 -81
27 l-25 42 24 15 c51 34 55 42 55 137 0 95 -4 103 -55 137 l-24 15 22 37 c31
53 31 53 81 34 45 -17 47 -17 75 4 15 11 48 31 72 43 54 27 56 31 65 87 l6 43
49 0 c49 0 49 0 55 -37z"/>
<path d="M692 929 c-124 -62 -132 -238 -14 -311 49 -30 133 -31 182 -2 122 71
116 248 -10 312 -56 28 -103 28 -158 1z m133 -109 c43 -47 10 -120 -53 -120
-20 0 -44 7 -54 17 -23 20 -24 80 -1 105 23 25 84 24 108 -2z"/>
<path d="M103 1142 c-17 -11 -59 -106 -80 -182 -27 -98 -24 -290 5 -394 39
-138 94 -229 202 -337 81 -82 109 -102 190 -142 135 -67 200 -82 350 -81 99 0
141 5 204 22 202 58 384 201 468 367 11 22 21 41 22 42 1 2 16 -3 34 -9 27
-10 34 -9 51 7 28 24 27 30 -14 119 -31 68 -37 76 -62 76 -31 0 -153 -54 -165
-73 -13 -20 -9 -36 13 -58 13 -13 27 -18 41 -13 39 12 -31 -95 -122 -187 -70
-71 -100 -94 -170 -127 -112 -54 -226 -77 -341 -69 -99 7 -219 43 -296 87
-129 74 -251 227 -300 374 -23 70 -27 97 -27 206 0 127 9 170 65 307 11 28 11
34 -6 52 -19 22 -41 26 -62 13z"/>
</g>
</svg>
